<!-- icon666.com - MILLIONS vector ICONS FREE --><svg id="Capa_1" viewBox="0 0 512 512" xmlns="http://www.w3.org/2000/svg" data-name="Capa 1"><ellipse cx="256" cy="344.405" fill="#bdbdbd" rx="170.287" ry="42.833"></ellipse><ellipse cx="256" cy="320.626" fill="#eee" rx="226.15" ry="42.833"></ellipse><path d="m435.444 238.44a70.354 70.354 0 0 0 -14.611-4.719c8.622-30.454-41.434-50.756-54.965-49.767-8.393.614-19.686 9.132-27.165 15.625-2.68-4.035-5.749-7.829-8.811-11.593-3.231-3.972-7.106-8.281-12.223-8.473a18.114 18.114 0 0 0 -5.563.966c-16.043 4.552-38.859-.178-48.232 13.513a59.536 59.536 0 0 1 1.427-8.16c.588-2.243 1.075-4.63.422-6.855a12.321 12.321 0 0 0 -2.871-4.554c-9.644-10.817-23.406-16.859-36.718-22.585-3.01-1.294-6.114-2.61-9.39-2.682-4.2-.091-8.15 1.868-11.875 3.818-17.222 9.013-33.993 18.857-50.757 28.7-3.242 1.9-6.566 3.877-8.872 6.847-1.942 2.5-10.5 11.385-5.39 20.4a168.522 168.522 0 0 0 -40.149 40.2c-1.22 1.733-2.407 3.532-3.536 5.378-14.382-3.022-25.746-4.724-28.538-4.717a9.486 9.486 0 0 0 -9.367 10.6c.69 5.9 1.505 12.526 2.3 19.035a100.937 100.937 0 0 0 15.952 43.37l.646.979a21.055 21.055 0 0 0 5.078 5.93 16.149 16.149 0 0 0 5.54 2.291c15.716 3.818 31.677-3.564 47.526-6.787 0 0 1.579-.547 4.109-1.563a26.14 26.14 0 0 0 7.371 8.284l.221.16c7.572 5.443 15.521 11.046 24.737 12.475a59.684 59.684 0 0 0 13.178.08l40.039-2.716c8.46-.574 17.093-1.187 24.933-4.417a19.253 19.253 0 0 0 6.158-4.467c7.414 1.352 16.111 1.482 26.329.02 9.031-1.292 15.962-3.653 21.216-6.757a19.519 19.519 0 0 0 16.686 11.212c3.082.15 6.192.115 9.257.07 25.5-.372 51.365-.8 75.833-7.978 9.346-2.743 18.941-6.868 24.466-14.89 3.335-5.164 2.345-16.811.7-23.411 8.072-9.315 11.562-25.666 12.809-39.251a13.5 13.5 0 0 0 -7.9-13.611z" fill="#fcca5f"></path><g fill="#cea263"><path d="m58.261 260.122c.69 5.9 1.5 12.526 2.3 19.035a100.933 100.933 0 0 0 15.952 43.37l.646.979a21.054 21.054 0 0 0 5.078 5.931 16.143 16.143 0 0 0 5.54 2.291c15.716 3.818 31.677-3.564 47.526-6.787 0 0 1.579-.547 4.109-1.562a26.133 26.133 0 0 0 7.371 8.283l.221.161c7.572 5.443 15.521 11.045 24.736 12.475a59.716 59.716 0 0 0 13.178.08l40.039-2.717c8.46-.574 17.092-1.187 24.933-4.417a19.25 19.25 0 0 0 6.158-4.467c7.414 1.353 16.111 1.482 26.33.021 9.031-1.292 15.962-3.652 21.216-6.757a19.52 19.52 0 0 0 16.686 11.212c3.082.15 6.192.114 9.257.069 25.5-.372 51.365-.8 75.833-7.978 9.346-2.742 18.941-6.867 24.466-14.89 2.907-4.5 2.528-13.92 1.291-20.637l-.762-.121c-57 44-131 6-131 6-17 24-41 4.5-41 4.5-42.5 39.5-121.5 6-121.5 6-62.819 18.341-57.517-47.829-56.206-58.932a111.351 111.351 0 0 0 -13.031-1.742 9.487 9.487 0 0 0 -9.367 10.6z"></path><path d="m111.031 236.363s47.667 17.333 69 0l2 13.333s-16.553 15.823-22.678 23.2c-12.125-5.875-59.322-17.532-59.322-17.532z"></path><path d="m411.865 205.2c-8 15.5-65.5 13.5-65.5 13.5v6c-16 12.5-63-13.5-63-13.5l-5.5 16.5s22.728 19.484 28.114 28.046c14.718-14.789 63.811-7.465 63.811-7.465a64.839 64.839 0 0 1 53.575-15c3.524-14.239-11.5-28.081-11.5-28.081z"></path></g><path d="m204.522 137.52 41.11-12.11c4.846-1.428 10.194-2.829 14.8-.754 6.989 3.149 8.443 12.138 11.342 19.234a36.591 36.591 0 0 0 17.013 18.543c8.468 4.341 20.088 6.916 22.116 16.213a6.626 6.626 0 0 1 -.16 3.849 7.812 7.812 0 0 1 -3.145 3.377c-5.648 3.746-13.01 5.063-17.418 10.211a28.331 28.331 0 0 0 -4.014 7.092l-7.458 16.763c-3.236 7.274-6.771 14.918-13.324 19.44s-17.08 4.271-21.108-2.6c-2.94-5.012-1.57-11.7-4.513-16.71-3.182-5.416-10.091-7-16.071-8.92s-12.609-6.028-12.5-12.309c.1-5.491 5.544-10.355 4.111-15.656-.9-3.326-4.342-5.408-7.741-5.977-10.484-1.758-32.458 3.7-35.583-12.074-3.25-16.39 21.164-24.259 32.543-27.612z" fill="#fd4755"></path><path d="m466.83 299.638a175.62 175.62 0 0 0 -28.157-9.3c6.719-10.759 9.525-25.561 10.643-37.737a19.471 19.471 0 0 0 -11.446-19.646 79.29 79.29 0 0 0 -10.159-3.693c.676-8.233-1.98-16.378-7.887-23.9-13.3-16.927-42.184-28.281-54.395-27.393-8.173.6-17.894 6.786-25.606 12.858-1.731-2.269-3.515-4.462-5.277-6.628-2.949-3.625-8.438-10.375-16.65-10.683a16.146 16.146 0 0 0 -1.925.05c-3.508-7.523-11.614-11.022-18.311-13.9-2.021-.869-3.929-1.69-5.642-2.568a30.668 30.668 0 0 1 -14.2-15.472c-.565-1.386-1.086-2.9-1.637-4.5-2.21-6.419-4.959-14.408-12.794-17.939-6.869-3.094-14.146-.949-18.96.469l-28.8 8.484a6 6 0 0 0 -4.061 7.451c.011.039.027.074.04.113a6 6 0 0 0 7.412 3.947l28.8-8.484c4.126-1.215 8.043-2.208 10.64-1.039 3.105 1.4 4.694 6.016 6.377 10.9.58 1.687 1.181 3.431 1.874 5.129a42.839 42.839 0 0 0 19.831 21.614c2.072 1.063 4.259 2 6.373 2.914 7.067 3.04 11.764 5.326 12.618 9.241.029.137.047.247.057.333a6.952 6.952 0 0 1 -.816.612 42.934 42.934 0 0 1 -6.108 3.107c-4.2 1.875-8.953 4-12.551 8.2a33.431 33.431 0 0 0 -4.939 8.556l-7.456 16.766c-3.338 7.5-6.286 13.515-11.25 16.941a11.7 11.7 0 0 1 -8.769 1.749 5.467 5.467 0 0 1 -3.756-2.443c-.858-1.464-1.162-3.723-1.483-6.115-.444-3.3-.947-7.05-3.031-10.6-4-6.814-11.449-9.12-17.432-10.973-.666-.207-1.327-.411-1.978-.62-4.047-1.3-8.382-3.888-8.337-6.494a14.214 14.214 0 0 1 1.642-4.564c1.535-3.239 3.637-7.676 2.262-12.762-1.415-5.234-6.338-9.289-12.54-10.329a65.734 65.734 0 0 0 -10.693-.492c-12.867.064-18.823-.906-20-6.831-1.219-6.152 4.5-11.822 17-16.853a6 6 0 0 0 3.476-7.375c-.046-.145-.091-.289-.149-.432a6 6 0 0 0 -7.806-3.327c-23.2 9.333-26.016 21.638-24.3 30.317.067.341.151.665.23.992q-7.941 4.61-15.74 9.2c-3.354 1.969-7.529 4.42-10.574 8.341-.145.186-.335.415-.556.683-2.548 3.088-8.514 10.319-7.612 19.232a17.943 17.943 0 0 0 .329 2.014 174.4 174.4 0 0 0 -37.865 38.9c-.505.717-.979 1.425-1.454 2.133-12.721-2.556-22.7-4.017-25.706-4.017h-.025a15.485 15.485 0 0 0 -15.31 17.3c.594 5.088 1.282 10.717 1.971 16.345l.332 2.721a106.32 106.32 0 0 0 2.886 14.771q-6.849 2.278-12.321 4.725c-14.347 6.424-21.32 13.669-21.32 22.149s6.974 15.725 21.32 22.149c9.427 4.222 22.009 8.08 37.488 11.51 6.489 10.451 23.713 19.246 51.467 26.228 32.639 8.207 75.921 12.727 121.886 12.727s89.247-4.52 121.874-12.727c27.754-6.981 44.978-15.776 51.467-26.227 15.479-3.43 28.061-7.288 37.489-11.51 14.347-6.424 21.32-13.669 21.32-22.149s-6.973-15.724-21.32-22.149zm-33.813-55.711a7.482 7.482 0 0 1 4.351 7.574c-.988 10.751-3.053 19.833-5.958 26.72a71.658 71.658 0 0 0 -6.343-8.825c-6.354-7.679-12.771-13.282-19.62-17.127-7.469-4.195-15.695-6.367-22.834-7.7.451-.266.879-.511 1.271-.727 17.205-7.157 32.825-7.127 49.133.085zm-123.926 21.157a15.822 15.822 0 0 1 15.129-12.125c3.04-.044 6.182-.074 9.405-.074 13.276 0 27.9.514 42.152 2.7 7.08 1.084 16.183 2.877 23.794 7.151 5.538 3.11 10.854 7.792 16.249 14.313 4.569 5.525 7.311 10.2 8.626 14.722 1.958 6.73 2.149 16.756.388 19.63-4.9 7.03-14.414 10.47-21.154 12.448-23.855 7-49.465 7.374-74.231 7.736-3.187.046-6.06.074-8.877-.064a13.593 13.593 0 0 1 -12.582-10.986c-3.411-18.272-3.01-38.482 1.101-55.451zm57.209-75.146c7.123-.526 32.44 8.015 44.083 22.837 3.69 4.7 5.487 9.363 5.439 14.129-12.073-1.293-24.274.7-36.869 5.988-.178.075-.353.158-.522.25a83.667 83.667 0 0 0 -13.2 9.064c-4.645-.441-9.265-.747-13.814-.951.629-7.068.76-12.542.786-14.171 1.18-7.588-.394-15.922-4.564-24.141-.363-.715-.748-1.413-1.136-2.106 6.977-5.582 14.697-10.526 19.797-10.899zm-81.623 32.441 7.458-16.763a23.715 23.715 0 0 1 3.091-5.629c1.843-2.152 4.85-3.5 8.33-5.05a52.53 52.53 0 0 0 7.848-4.063 14.124 14.124 0 0 0 4.996-5.274 5.871 5.871 0 0 1 .921-.092h.125c2.445.091 5.189 3.064 7.792 6.264 4.286 5.269 8.718 10.717 11.705 16.6 2.15 4.237 4.479 10.655 3.358 17.167a6.093 6.093 0 0 0 -.087.97c-.039 4.764-.294 9.638-.736 14.408-5.35-.066-10.526-.031-15.432.04a27.734 27.734 0 0 0 -18.646 7.566c-5.56-9.247-16.261-17.371-22.838-21.5.758-1.589 1.457-3.154 2.12-4.644zm-48.115 6.851c.443 3.3.946 7.042 3.025 10.589a17.443 17.443 0 0 0 11.511 8.087 21.92 21.92 0 0 0 4.738.506 24.043 24.043 0 0 0 13.443-4.095 31.945 31.945 0 0 0 7.2-6.983c5.8 3.685 16.207 11.694 19.652 19.28.589 1.3 1.21 2.546 1.833 3.76-.2.62-.386 1.243-.541 1.883-4.5 18.558-4.946 40.6-1.236 60.474.032.173.082.339.118.511a59.425 59.425 0 0 1 -14.782 3.872 89.41 89.41 0 0 1 -14.3.949c.223-.376.435-.741.627-1.082a22.708 22.708 0 0 0 -2.8-26.066 265.352 265.352 0 0 0 -47.506-42.6c-.044-.5-.084-.988-.129-1.489-.729-8.052-1.48-16.378 2.418-21.7a12.508 12.508 0 0 1 6.61-4.343 53.989 53.989 0 0 1 10.069-1.937zm-44.474 27.07a253.412 253.412 0 0 1 63.937 52.528 10.691 10.691 0 0 1 1.375 12.262c-3.044 5.4-6.89 9.666-9.8 10.864-7.015 2.89-15.169 3.443-23.054 3.978l-40.039 2.717a54.458 54.458 0 0 1 -11.852-.023c-8-1.24-15.518-6.647-22.211-11.458l-.126-.092a20.167 20.167 0 0 1 -8.247-14.579 21.072 21.072 0 0 1 5.568-16.349c11.468-12.29 22.754-25.058 33.547-37.948a8.58 8.58 0 0 1 10.902-1.9zm-42.888-63.142c.311-.376.575-.7.778-.96 1.63-2.1 4.446-3.753 7.17-5.352 5.3-3.11 10.66-6.253 16.06-9.386 7.06 5.429 17.834 5.376 25.2 5.343a58.574 58.574 0 0 1 8.648.327 3.978 3.978 0 0 1 2.94 1.626c.22.814-.705 2.769-1.522 4.492-1.217 2.568-2.73 5.764-2.795 9.494-.139 7.951 6.091 14.727 16.663 18.125.689.222 1.393.439 2.1.659.812.251 1.616.5 2.4.756q-1.893.435-3.793.992a24.2 24.2 0 0 0 -12.9 8.76c-4.854 6.621-5.578 14.4-5.27 21.952-2.245-1.388-4.5-2.755-6.793-4.078a20.59 20.59 0 0 0 -10.985-2.755l-2.458-55.058a6 6 0 0 0 -8.078-5.359 172.4 172.4 0 0 0 -30.665 15.007 33.361 33.361 0 0 1 3.3-4.585zm23.838 3.917 2.194 49.143a5.985 5.985 0 0 0 .15 1.074 20.592 20.592 0 0 0 -3.393 3.2c-4.567 5.454-9.237 10.876-13.958 16.258-8.222-3.729-19.49-7.79-35.012-12-5.689-1.543-11.414-2.954-16.924-4.215a163.709 163.709 0 0 1 66.944-53.461zm-107.955 59.868a3.41 3.41 0 0 1 2.562-1.162h.013c3.326 0 27.045 3.729 52.223 10.555a242.96 242.96 0 0 1 29.756 9.861q-5.35 5.936-10.764 11.763a33.076 33.076 0 0 0 -8.741 25.667 32.571 32.571 0 0 0 1.238 6.294c-3.559.815-7.091 1.773-10.529 2.714-11.152 3.054-21.688 5.938-31.646 3.519a10.426 10.426 0 0 1 -3.5-1.368 16.929 16.929 0 0 1 -3.521-4.329l-.646-.978a95.419 95.419 0 0 1 -15-40.792l-.333-2.723c-.686-5.607-1.371-11.214-1.964-16.283a3.481 3.481 0 0 1 .852-2.738zm309.864 113.092c-31.698 7.974-73.941 12.365-118.947 12.365s-87.249-4.391-118.947-12.365c-12.41-3.121-21.845-6.464-28.812-9.741 41.222 6.682 93.035 10.327 147.759 10.327s106.537-3.645 147.758-10.327c-6.967 3.278-16.402 6.62-28.811 9.741zm39.853-23.855c-42.357 8.023-98.752 12.441-158.8 12.441s-116.438-4.421-158.8-12.441c-48.527-9.192-61.35-19.98-61.35-24.393 0-3.026 6.022-9.038 25.406-15.479a106.947 106.947 0 0 0 10.25 19.783l.646.978a26.355 26.355 0 0 0 6.634 7.534 22.156 22.156 0 0 0 7.575 3.213 45.259 45.259 0 0 0 10.747 1.245c9.185 0 18.15-2.455 26.9-4.851 4.319-1.183 8.4-2.3 12.49-3.132a5.986 5.986 0 0 0 .627-.171 32.224 32.224 0 0 0 6.128 5.866l.248.179c7.346 5.281 16.487 11.853 27.319 13.532a44.453 44.453 0 0 0 6.812.478c2.676 0 5.271-.176 7.691-.34l40.039-2.717c8.432-.572 17.989-1.221 26.812-4.855a22.471 22.471 0 0 0 5.83-3.648 78.426 78.426 0 0 0 10.566.693 103.621 103.621 0 0 0 14.656-1.1 71.021 71.021 0 0 0 18.205-4.886 25.376 25.376 0 0 0 18.554 9.394c1.779.087 3.529.116 5.323.116 1.4 0 2.824-.018 4.313-.04 25.569-.373 52.01-.759 77.435-8.219 8.523-2.5 20.67-7.01 27.719-17.244.033-.049.066-.1.1-.148 2.62-4.057 3.307-9.886 3.155-15.4 29.559 7.764 38.119 15.615 38.119 19.222.001 4.41-12.822 15.198-61.349 24.39z"></path></svg>